<?xml version="1.0" standalone="no"?>
<!DOCTYPE svg PUBLIC "-//W3C//DTD SVG 20010904//EN"
 "http://www.w3.org/TR/2001/REC-SVG-20010904/DTD/svg10.dtd">
<svg version="1.0" xmlns="http://www.w3.org/2000/svg"
 width="309.000000pt" height="309.000000pt" viewBox="0 0 309.000000 309.000000"
 preserveAspectRatio="xMidYMid meet">
<metadata>
Created by potrace 1.14, written by Peter Selinger 2001-2017
</metadata>
<g transform="translate(0.000000,309.000000) scale(0.100000,-0.100000)"
fill="#000000" stroke="none">
<path d="M5 3068 c4 -13 17 -33 28 -45 18 -20 16 -25 -9 -22 -13 1 -24 -26
-24 -59 0 -27 3 -32 18 -28 31 10 187 46 197 46 6 0 -2 -8 -18 -18 -15 -10
-25 -22 -22 -25 3 -4 2 -5 -2 -2 -3 3 -30 -15 -59 -40 -29 -25 -58 -45 -66
-45 -13 0 -60 -29 -48 -30 3 0 26 7 53 15 44 13 47 13 38 -3 -13 -23 -52 -55
-59 -48 -3 3 -11 1 -19 -5 -14 -12 -19 -149 -5 -149 6 1 72 49 215 157 31 24
62 51 69 61 32 45 33 24 2 -71 -38 -115 -39 -121 -21 -114 10 4 8 -12 -8 -56
-13 -34 -25 -78 -29 -97 -3 -19 9 8 28 60 57 161 111 265 165 321 25 26 51 59
51 65 0 6 15 25 70 83 34 36 51 47 70 45 14 -1 41 -3 60 -3 30 -1 48 -13 111
-73 81 -77 95 -99 124 -188 10 -30 21 -57 25 -60 5 -3 -23 -48 -62 -100 -84
-114 -214 -321 -280 -445 l-48 -90 0 53 c0 29 4 61 9 70 5 9 5 26 0 37 -4 11
-8 14 -8 7 -1 -7 -28 -67 -61 -134 -33 -66 -60 -127 -60 -137 0 -20 -62 -164
-80 -186 -7 -8 -10 -22 -6 -30 12 -31 68 15 107 88 11 21 24 35 29 32 20 -12
53 -94 45 -112 -4 -10 -8 -37 -9 -61 -1 -39 2 -46 40 -77 38 -31 43 -33 60
-19 18 15 18 15 -2 9 -14 -3 -21 -1 -21 9 0 8 7 12 16 9 9 -2 5 3 -9 11 -24
15 -24 15 -3 16 12 0 28 -8 35 -18 22 -30 116 -100 153 -113 19 -7 35 -16 35
-19 0 -9 110 -3 192 11 69 11 101 30 106 64 2 11 10 27 18 36 16 18 18 69 5
116 -5 17 -7 34 -4 37 8 8 33 -5 27 -15 -3 -5 0 -9 5 -9 6 0 11 -6 11 -14 0
-8 7 -16 15 -20 27 -10 16 12 -51 100 l-66 87 6 53 c8 66 15 86 30 77 7 -5 7
-2 -1 8 -14 17 -12 29 29 162 24 77 36 100 53 107 13 5 25 20 28 37 3 15 20
68 37 118 31 91 50 125 50 91 0 -9 4 -15 8 -12 4 2 8 -4 8 -14 0 -10 -4 -16
-8 -14 -4 3 -8 0 -8 -5 0 -6 5 -11 11 -11 5 0 7 -4 4 -10 -16 -25 64 -200 92
-201 4 0 13 -10 20 -22 7 -12 12 -16 13 -9 0 7 4 11 9 8 5 -4 7 3 4 14 -3 11
-9 17 -13 15 -5 -3 -8 8 -8 25 1 17 -4 41 -10 53 -17 35 -42 153 -42 197 0 22
-5 40 -10 40 -7 0 -7 6 0 20 18 33 40 25 34 -12 -5 -28 -2 -35 18 -43 13 -5
23 -17 23 -25 0 -21 88 -191 135 -260 47 -70 124 -139 199 -179 61 -32 191
-72 231 -70 14 1 -9 10 -50 20 -41 10 -95 26 -118 35 l-44 16 7 72 c11 125 46
370 55 385 6 11 15 1 35 -40 15 -30 40 -67 55 -84 15 -16 39 -58 53 -92 l25
-63 -32 -1 -31 -2 34 -6 c46 -8 93 -77 111 -160 14 -67 32 -101 44 -83 4 7 3
12 -3 12 -11 0 -30 52 -36 106 -3 21 -10 41 -15 42 -6 2 -10 10 -10 18 0 8 -4
14 -9 14 -10 0 -84 160 -78 167 3 2 19 -3 36 -11 55 -29 56 -17 1 17 -47 28
-56 39 -72 87 -21 62 -16 98 26 189 19 41 42 66 112 122 l89 70 75 -6 c41 -3
76 -8 77 -9 6 -6 64 -304 70 -359 3 -32 10 -60 16 -64 6 -3 7 11 2 38 -22 147
-38 235 -55 304 -11 44 -18 81 -16 83 4 4 166 -80 255 -133 60 -36 273 -191
316 -232 11 -10 43 -36 70 -58 28 -22 55 -47 62 -55 10 -12 12 2 13 73 0 85 0
87 -24 87 -13 0 -34 9 -47 19 l-24 19 30 11 c17 6 39 16 50 21 18 9 17 10 -5
5 -90 -20 -90 -20 -137 37 -33 41 -110 87 -168 103 -42 10 -76 30 -129 72 -91
73 -97 79 -88 88 4 5 2 5 -4 2 -6 -4 -31 18 -55 49 -73 93 -78 97 -94 90 -9
-3 -13 -10 -10 -16 4 -6 -1 -7 -10 -3 -13 5 -14 7 -3 14 23 15 -123 10 -182
-6 -69 -18 -73 -18 -66 0 7 20 -58 21 -105 1 -48 -19 -85 -30 -77 -21 3 4 24
13 45 20 36 13 34 13 -53 12 -86 -2 -93 -4 -125 -32 -19 -17 -41 -45 -48 -63
-13 -32 -13 -35 20 -70 19 -20 40 -41 48 -48 12 -10 11 -17 -6 -53 -13 -25
-16 -41 -9 -41 6 -1 -13 -12 -43 -26 -29 -14 -55 -23 -58 -20 -3 2 -20 -2 -38
-10 -19 -8 -46 -14 -60 -14 -15 0 -24 -4 -20 -10 3 -5 -2 -10 -11 -10 -10 0
-14 3 -10 7 7 8 -127 33 -173 33 -17 0 -22 4 -17 16 5 14 4 15 -9 4 -20 -16
-89 6 -205 66 -82 42 -122 54 -61 18 33 -20 46 -40 30 -49 -5 -4 -12 1 -15 9
-24 63 -32 -89 -11 -209 16 -93 13 -105 -27 -105 -29 0 -33 -3 -29 -22 3 -18
12 -24 36 -25 51 -4 74 -12 81 -28 3 -9 -12 -68 -33 -133 -21 -64 -42 -132
-46 -150 -5 -25 -11 -32 -23 -27 -9 3 -37 8 -62 10 -44 5 -43 4 10 -8 l55 -12
-3 -57 c-3 -78 -16 -108 -44 -107 -21 0 -21 1 -3 8 16 7 14 9 -14 14 -18 4
-45 5 -59 2 -23 -5 -24 -4 -7 4 19 9 19 10 -3 10 -13 1 -33 6 -45 13 -22 12
-21 12 8 19 l30 7 -34 1 c-19 0 -43 8 -53 18 -16 14 -18 14 -18 0 0 -12 -14
-17 -57 -22 -33 -3 -81 -17 -111 -33 -47 -24 -117 -38 -106 -21 2 4 -3 12 -11
19 -17 14 -21 45 -5 35 6 -4 10 9 10 33 0 25 15 70 46 133 52 107 133 241 143
236 3 -2 24 2 46 9 28 9 33 13 17 13 -13 1 -32 -4 -43 -9 -13 -8 -19 -7 -19 0
0 6 19 20 43 31 31 15 35 19 15 16 -21 -3 -25 -1 -20 12 8 21 135 203 180 259
32 39 34 59 3 30 -8 -7 -6 -1 4 15 17 26 44 40 29 15 -5 -7 10 2 31 21 22 19
40 40 41 48 2 14 -49 46 -78 48 -9 1 -39 19 -68 41 l-51 39 3 53 3 52 -327 0
-327 0 -73 -35 c-62 -31 -76 -34 -95 -24 -32 17 -36 38 -10 49 20 8 19 9 -11
9 -30 1 -33 -1 -27 -21z m1855 2 c0 -5 -5 -10 -11 -10 -5 0 -7 5 -4 10 3 6 8
10 11 10 2 0 4 -4 4 -10z m27 -5 c0 -8 -4 -12 -9 -9 -4 3 -8 9 -8 15 0 5 4 9
8 9 5 0 9 -7 9 -15z m63 11 c0 -2 -11 -6 -25 -8 -13 -3 -22 -1 -19 3 5 9 44
13 44 5z m425 -26 c3 -5 1 -10 -4 -10 -6 0 -11 5 -11 10 0 6 2 10 4 10 3 0 8
-4 11 -10z m-500 -12 c3 -3 -5 -5 -17 -4 -13 0 -22 -4 -21 -10 1 -6 -5 -11
-13 -11 -18 0 -18 2 1 20 14 15 38 17 50 5z m560 -17 c3 -5 2 -12 -3 -15 -5
-3 -9 1 -9 9 0 17 3 19 12 6z m-650 -50 c-7 -23 -25 -29 -25 -8 0 14 21 39 28
33 2 -3 1 -14 -3 -25z m806 -98 c13 -16 12 -17 -3 -4 -17 13 -22 21 -14 21 2
0 10 -8 17 -17z m-2561 -127 c0 -3 -4 -8 -10 -11 -5 -3 -10 -1 -10 4 0 6 5 11
10 11 6 0 10 -2 10 -4z m1310 -30 c0 -2 -7 -6 -15 -10 -8 -3 -15 -1 -15 4 0 6
7 10 15 10 8 0 15 -2 15 -4z m54 -4 c2 -4 -4 -8 -14 -8 -10 0 -16 4 -14 8 3 4
9 8 14 8 5 0 11 -4 14 -8z m400 -40 c3 -9 0 -53 -8 -96 -13 -77 -12 -116 4
-116 5 0 10 -8 13 -17 3 -15 6 -14 15 7 14 33 14 36 -3 -125 -8 -77 -15 -148
-15 -158 0 -15 -10 -11 -58 22 -95 64 -203 202 -206 262 0 15 -4 25 -9 22 -9
-6 2 69 12 78 3 3 35 22 71 41 36 19 88 49 115 66 60 36 62 37 69 14z m-488
-30 c-18 -16 -18 -16 -6 6 6 13 14 21 18 18 3 -4 -2 -14 -12 -24z m664 -129
c0 -7 -4 -13 -10 -13 -5 0 -10 12 -10 28 0 21 2 24 10 12 5 -8 10 -21 10 -27z
m-1430 -328 c0 -8 -4 -15 -10 -15 -5 0 -7 7 -4 15 4 8 8 15 10 15 2 0 4 -7 4
-15z m290 -220 c0 -20 -6 -25 -37 -30 -21 -3 -46 -8 -55 -10 -10 -2 -18 1 -18
6 0 6 -8 5 -19 -1 -11 -5 -30 -10 -42 -10 -38 0 -4 25 66 49 83 28 105 27 105
-4z m-311 -36 l1 34 24 -34 23 -34 -21 -17 c-20 -16 -41 -15 -31 3 4 5 2 9 -3
9 -15 0 -23 30 -15 54 6 18 8 16 14 -14 l6 -35 2 34z m76 -59 c3 -5 -6 -21
-22 -34 -19 -17 -30 -21 -35 -13 -4 7 5 19 25 29 18 9 28 17 24 18 -5 0 -18
-5 -30 -12 -20 -10 -21 -10 -8 5 15 19 37 22 46 7z m235 0 c0 -6 -9 -18 -20
-27 -13 -12 -18 -24 -14 -40 4 -13 2 -23 -4 -23 -5 0 -12 -11 -14 -25 -4 -19
-1 -25 13 -25 11 0 19 -4 19 -10 0 -5 -4 -10 -9 -10 -19 0 -39 -30 -34 -50 3
-11 9 -20 14 -20 5 0 9 -7 9 -15 0 -8 -5 -15 -11 -15 -6 0 -9 -7 -5 -15 3 -8
3 -15 0 -15 -14 0 -94 63 -131 102 -49 54 -49 85 0 113 18 10 37 24 42 31 12
15 102 53 128 53 9 1 17 -4 17 -9z m-240 -162 c0 -5 -4 -8 -10 -8 -5 0 -10 10
-10 23 0 18 2 19 10 7 5 -8 10 -18 10 -22z m320 28 c0 -3 -4 -8 -10 -11 -5 -3
-10 -1 -10 4 0 6 5 11 10 11 6 0 10 -2 10 -4z"/>
<path d="M1457 3073 c9 -34 59 -98 78 -100 19 -3 19 -3 0 6 -27 12 -72 91 -51
91 8 0 17 -6 19 -12 4 -10 6 -10 6 0 1 7 17 12 44 13 94 2 91 17 -5 18 -87 1
-96 -1 -91 -16z"/>
<path d="M2948 3064 c24 -14 46 -24 48 -21 6 6 -63 47 -79 47 -7 0 7 -12 31
-26z"/>
<path d="M2984 3077 c9 -7 18 -20 20 -29 2 -17 86 -85 86 -70 0 11 -104 112
-115 112 -5 0 -1 -6 9 -13z"/>
<path d="M1614 3035 c-4 -8 -4 -24 -1 -35 3 -10 1 -21 -4 -24 -5 -2 -4 -3 3
-2 8 2 12 14 10 34 -3 25 1 31 20 35 l23 4 -23 2 c-12 0 -25 -6 -28 -14z"/>
<path d="M1690 3040 c-23 -7 -23 -8 -3 -9 12 -1 25 4 28 9 3 6 5 10 3 9 -2 -1
-14 -5 -28 -9z"/>
<path d="M1410 2810 c-6 -11 -8 -20 -6 -20 3 0 10 9 16 20 6 11 8 20 6 20 -3
0 -10 -9 -16 -20z"/>
<path d="M937 2473 c18 -2 50 -2 70 0 21 2 7 4 -32 4 -38 0 -55 -2 -38 -4z"/>
<path d="M933 2433 c15 -2 39 -2 55 0 15 2 2 4 -28 4 -30 0 -43 -2 -27 -4z"/>
<path d="M848 2423 c7 -3 16 -2 19 1 4 3 -2 6 -13 5 -11 0 -14 -3 -6 -6z"/>
<path d="M1310 2315 c-18 -19 -31 -37 -28 -40 2 -3 19 13 37 35 39 49 36 51
-9 5z"/>
<path d="M216 2332 c-10 -16 -1 -84 26 -217 12 -55 21 -113 20 -130 -3 -66 9
-110 38 -144 35 -39 38 -25 10 38 -25 55 -25 65 0 24 11 -18 24 -33 30 -33 13
0 13 3 -11 85 -37 130 -47 170 -54 215 -4 24 -11 51 -16 60 -5 8 -14 38 -21
65 -9 33 -16 46 -22 37z"/>
<path d="M3042 2278 c24 -36 44 -65 46 -63 6 6 -27 60 -58 95 -26 29 -24 24
12 -32z"/>
<path d="M3060 2334 c0 -6 7 -19 15 -30 8 -10 14 -14 14 -9 0 6 -6 19 -14 29
-8 11 -15 15 -15 10z"/>
<path d="M1913 2323 c9 -2 23 -2 30 0 6 3 -1 5 -18 5 -16 0 -22 -2 -12 -5z"/>
<path d="M1325 2253 l-7 -47 -20 24 c-19 24 -19 23 1 -13 12 -21 21 -55 22
-75 0 -20 7 -59 14 -87 l14 -50 -7 50 c-3 28 -6 94 -6 148 1 53 0 97 -2 97 -1
0 -5 -21 -9 -47z"/>
<path d="M2840 2295 c0 -2 33 -21 73 -43 39 -22 96 -56 125 -76 52 -36 75 -38
26 -2 -70 50 -224 134 -224 121z"/>
<path d="M1920 2276 c0 -3 26 -10 57 -16 32 -7 64 -15 73 -18 10 -3 12 -2 5 5
-14 15 -135 40 -135 29z"/>
<path d="M1237 2222 c-39 -60 -133 -251 -113 -231 4 3 26 46 50 95 25 49 56
108 71 132 33 52 27 56 -8 4z"/>
<path d="M1560 2216 c0 -2 8 -10 18 -17 15 -13 16 -12 3 4 -13 16 -21 21 -21
13z"/>
<path d="M1620 2154 c14 -16 18 -23 10 -16 -8 6 -18 12 -22 12 -14 0 63 -100
133 -171 l69 -71 0 60 0 60 58 -18 c62 -19 150 -35 140 -25 -3 3 -45 15 -92
26 -48 12 -92 26 -99 33 -7 7 -24 16 -39 19 -15 4 -56 29 -91 56 -85 64 -97
70 -67 35z m170 -120 c0 -2 -9 0 -20 6 -11 6 -20 13 -20 16 0 2 9 0 20 -6 11
-6 20 -13 20 -16z"/>
<path d="M1472 2150 c0 -14 2 -19 5 -12 2 6 2 18 0 25 -3 6 -5 1 -5 -13z"/>
<path d="M858 2113 c17 -2 47 -2 65 0 17 2 3 4 -33 4 -36 0 -50 -2 -32 -4z"/>
<path d="M1480 2102 c0 -49 105 -351 117 -338 2 2 -5 23 -17 45 -11 23 -37 99
-57 169 -34 123 -43 148 -43 124z"/>
<path d="M2323 2007 c3 -56 10 -115 16 -132 8 -24 9 -16 5 40 -2 39 -1 64 2
57 6 -12 133 -138 207 -203 49 -44 75 -141 60 -218 -8 -40 -7 -51 4 -55 9 -4
13 4 14 27 0 18 2 40 4 49 2 9 -1 34 -5 55 -6 25 -5 42 3 52 7 9 8 12 1 8 -6
-3 -16 5 -23 20 -10 22 -10 25 4 19 9 -3 19 -6 21 -6 3 0 3 -3 1 -7 -3 -5 8
-8 24 -9 16 -1 29 0 29 1 0 1 -28 16 -62 33 -60 30 -161 117 -193 165 -7 12
-28 61 -45 108 -23 65 -36 88 -52 92 -20 6 -21 4 -15 -96z"/>
<path d="M2881 2086 c10 -9 69 -36 69 -32 0 6 -55 36 -66 36 -4 0 -5 -2 -3 -4z"/>
<path d="M2068 2063 c12 -2 32 -2 45 0 12 2 2 4 -23 4 -25 0 -35 -2 -22 -4z"/>
<path d="M2768 2018 c33 -40 115 -205 109 -221 -1 -5 -11 -1 -22 9 -16 17 -88
54 -104 54 -3 0 -6 -43 -7 -95 0 -52 1 -95 2 -95 2 0 15 25 29 54 27 58 34 60
80 29 11 -7 28 -13 38 -13 16 0 18 5 13 30 -3 17 -3 51 1 76 l6 47 89 -7 88
-7 0 29 c0 28 -2 29 -61 36 -34 3 -91 6 -127 6 l-65 0 -50 53 c-27 28 -36 36
-19 15z"/>
<path d="M2962 2046 c15 -17 123 -84 128 -80 5 6 3 7 -80 55 -30 18 -52 29
-48 25z"/>
<path d="M2124 2015 c-10 -8 -29 -15 -41 -15 -12 0 -25 -5 -29 -12 -5 -8 -2
-9 10 -5 10 4 24 7 31 7 7 0 23 9 36 20 28 22 22 27 -7 5z"/>
<path d="M948 1983 c7 -3 16 -2 19 1 4 3 -2 6 -13 5 -11 0 -14 -3 -6 -6z"/>
<path d="M1372 1905 c0 -16 2 -22 5 -12 2 9 2 23 0 30 -3 6 -5 -1 -5 -18z"/>
<path d="M1426 1845 c4 -8 8 -15 10 -15 2 0 4 7 4 15 0 8 -4 15 -10 15 -5 0
-7 -7 -4 -15z"/>
<path d="M1383 1815 c0 -22 2 -30 4 -17 2 12 2 30 0 40 -3 9 -5 -1 -4 -23z"/>
<path d="M2150 1846 c0 -2 7 -7 16 -10 8 -3 12 -2 9 4 -6 10 -25 14 -25 6z"/>
<path d="M2351 1820 c0 -24 25 -124 38 -148 15 -29 11 -28 -46 8 -26 17 -52
30 -57 30 -6 0 17 -17 52 -37 34 -20 60 -39 57 -42 -9 -9 -144 62 -138 73 6 9
7 38 4 79 -1 6 -7 1 -14 -13 -7 -14 -23 -26 -35 -28 -12 -2 -20 -8 -17 -13 4
-5 -22 -8 -59 -6 -36 1 -66 5 -66 9 0 4 -24 6 -54 3 -61 -5 -136 -47 -136 -77
0 -21 11 -23 29 -5 11 10 13 9 7 -6 -16 -46 -17 -65 -3 -78 7 -8 12 -20 9 -27
-2 -7 3 -24 12 -37 9 -14 24 -37 33 -52 l18 -26 -35 6 c-18 4 -41 14 -50 22
-9 8 -20 12 -24 8 -3 -4 -39 24 -78 63 -39 38 -62 56 -50 39 32 -46 64 -80 94
-99 15 -10 30 -31 33 -47 4 -16 13 -29 20 -29 23 0 85 -33 79 -42 -3 -4 3 -5
12 -1 12 4 15 3 10 -5 -5 -8 -1 -10 10 -5 11 4 15 3 11 -4 -4 -6 6 -15 23 -21
17 -6 32 -7 35 -2 3 5 12 7 20 4 8 -4 13 -10 10 -14 -3 -4 2 -10 9 -13 10 -4
14 0 11 13 -3 13 1 17 11 13 8 -3 14 -9 14 -15 0 -5 4 -7 8 -4 5 3 24 -10 42
-29 26 -27 37 -32 47 -24 20 17 16 24 -27 45 -38 18 -52 34 -30 34 9 0 27 32
35 63 2 4 4 10 5 15 1 4 2 10 1 15 0 4 6 7 14 7 20 0 19 10 -2 26 -17 12 -17
13 -1 14 13 0 16 8 13 43 -2 23 -4 44 -5 47 -1 3 -2 13 -1 22 1 10 -10 29 -26
43 l-28 25 27 -10 c98 -35 140 -73 168 -153 26 -73 25 -86 -6 -133 -15 -21
-23 -36 -19 -32 4 3 16 -3 27 -14 16 -16 17 -22 6 -36 -11 -13 -11 -14 2 -7 8
5 22 10 30 12 24 3 80 74 80 101 0 18 4 23 16 18 9 -3 20 -6 26 -6 6 0 8 -7 4
-15 -3 -8 0 -15 7 -16 7 0 3 -5 -8 -10 -21 -10 -33 -28 -95 -146 -21 -40 -53
-88 -72 -108 -18 -20 -37 -43 -41 -51 -5 -8 -12 -12 -17 -9 -12 7 -90 -104
-90 -128 0 -8 81 12 144 35 91 34 234 143 269 207 60 109 77 146 77 165 0 12
-11 -5 -24 -37 -13 -31 -32 -70 -42 -85 l-18 -27 -9 45 c-5 25 -9 94 -10 154
-1 73 -6 111 -14 113 -6 2 -14 -5 -18 -16 -11 -35 -73 -18 -79 21 -1 9 -21 37
-44 62 -23 25 -42 49 -42 54 0 5 11 15 25 22 33 18 32 30 -4 30 -38 0 -44 9
-74 110 -14 47 -26 78 -26 70z m-371 -280 c0 -5 -7 -10 -15 -10 -8 0 -15 5
-15 10 0 6 7 10 15 10 8 0 15 -4 15 -10z m19 -136 c10 -9 -35 -3 -49 6 -11 8
-7 9 15 4 17 -4 32 -8 34 -10z m542 -181 c-12 -20 -14 -14 -5 12 4 9 9 14 11
11 3 -2 0 -13 -6 -23z m40 -106 c-10 -9 -11 -8 -5 6 3 10 9 15 12 12 3 -3 0
-11 -7 -18z m-283 -181 c-2 -1 -12 -8 -22 -16 -18 -14 -19 -14 -7 8 7 12 17
20 22 16 6 -3 9 -7 7 -8z"/>
<path d="M1451 1805 c9 -11 28 -42 44 -70 15 -27 54 -86 86 -130 32 -44 65
-96 73 -115 8 -19 15 -29 16 -22 0 25 -30 83 -72 140 -24 31 -63 87 -87 124
-23 37 -50 73 -59 80 -16 12 -16 11 -1 -7z"/>
<path d="M1422 1790 c0 -14 2 -19 5 -12 2 6 2 18 0 25 -3 6 -5 1 -5 -13z"/>
<path d="M197 1786 c-16 -39 -37 -204 -36 -276 l2 -75 8 90 c4 50 11 110 14
135 7 40 8 42 16 22 5 -13 7 -28 3 -33 -3 -5 -1 -9 3 -9 5 0 26 -30 48 -67 49
-86 133 -196 154 -204 9 -4 29 -19 44 -33 28 -26 53 -26 43 0 -3 8 0 11 10 7
7 -3 14 -9 14 -14 0 -5 7 -9 16 -9 8 0 13 -4 9 -9 -7 -13 20 -27 68 -35 20 -4
37 -12 37 -19 0 -9 2 -9 8 0 4 6 38 13 77 15 69 4 95 11 95 27 0 5 -17 3 -37
-5 -21 -7 -59 -13 -84 -14 -56 0 -160 20 -154 30 4 7 -23 167 -40 233 -7 26
-6 27 20 17 14 -5 34 -10 43 -9 18 0 -31 21 -106 44 -31 10 -42 10 -39 2 2 -7
12 -12 23 -12 11 0 20 -8 22 -20 3 -19 2 -19 -11 -3 -8 10 -16 15 -19 12 -3
-3 -16 9 -28 25 -12 17 -27 31 -35 31 -7 0 -23 15 -34 33 -23 37 -85 91 -118
101 -12 4 -23 15 -25 24 -3 15 -4 15 -11 -2z m253 -306 c0 -5 -2 -10 -4 -10
-3 0 -8 5 -11 10 -3 6 -1 10 4 10 6 0 11 -4 11 -10z"/>
<path d="M1826 1763 c9 -38 14 -42 14 -10 0 14 -5 29 -10 32 -7 4 -8 -3 -4
-22z"/>
<path d="M1392 1695 c0 -65 2 -75 10 -53 6 18 6 46 0 80 l-10 53 0 -80z"/>
<path d="M2010 1761 c0 -5 9 -7 20 -4 11 3 20 7 20 9 0 2 -9 4 -20 4 -11 0
-20 -4 -20 -9z"/>
<path d="M1412 1740 c0 -14 2 -19 5 -12 2 6 2 18 0 25 -3 6 -5 1 -5 -13z"/>
<path d="M1613 1745 c0 -8 4 -12 9 -9 5 3 6 10 3 15 -9 13 -12 11 -12 -6z"/>
<path d="M2108 1753 c6 -2 18 -2 25 0 6 3 1 5 -13 5 -14 0 -19 -2 -12 -5z"/>
<path d="M620 1610 c-9 -6 -10 -10 -3 -10 6 0 15 5 18 10 8 12 4 12 -15 0z"/>
<path d="M695 1550 c-3 -5 -3 -14 0 -20 10 -15 -11 -12 -25 4 -6 8 -18 12 -27
9 -22 -9 15 -26 100 -47 71 -18 117 -15 138 10 10 12 8 12 -14 1 -19 -10 -40
-12 -74 -6 -27 4 -54 8 -62 8 -11 1 -11 5 2 19 10 10 14 22 10 25 -10 10 -41
8 -48 -3z"/>
<path d="M2940 1541 c0 -6 4 -12 9 -15 7 -5 23 -55 36 -111 3 -10 50 -157 86
-265 l18 -55 1 139 c0 163 -10 195 -88 270 -47 46 -62 55 -62 37z"/>
<path d="M0 1434 c0 -55 4 -68 38 -118 88 -131 169 -208 287 -274 70 -39 48
-34 -86 18 -54 21 -129 58 -168 84 -61 39 -71 43 -71 26 0 -15 24 -31 99 -67
55 -26 97 -51 95 -55 -3 -5 -11 -6 -17 -2 -7 3 7 -12 29 -33 23 -21 77 -58
120 -82 44 -24 88 -51 99 -60 26 -23 175 -104 175 -95 0 4 6 2 13 -4 7 -6 22
-9 34 -6 11 3 24 1 27 -5 11 -17 59 -13 102 9 37 18 37 19 12 20 -20 0 -43 16
-85 59 -70 71 -103 145 -110 247 -6 69 -5 72 18 79 48 14 144 60 163 77 27 24
11 23 -24 -2 -16 -11 -45 -27 -64 -35 -33 -14 -36 -14 -37 2 0 15 -2 15 -9 -3
-10 -26 -64 -42 -170 -50 l-85 -6 -50 38 c-27 21 -70 55 -94 76 -27 24 -51 36
-61 33 -15 -5 -57 39 -159 165 l-20 25 -1 -61z m211 -281 c13 -16 12 -17 -3
-4 -17 13 -22 21 -14 21 2 0 10 -8 17 -17z m409 -216 c0 -5 -4 -5 -10 -2 -5 3
-10 14 -10 23 0 15 2 15 10 2 5 -8 10 -19 10 -23z"/>
<path d="M1671 1434 c0 -11 3 -14 6 -6 3 7 2 16 -1 19 -3 4 -6 -2 -5 -13z"/>
<path d="M1706 1428 c-3 -13 -5 -36 -5 -53 1 -21 4 -15 10 20 8 52 6 72 -5 33z"/>
<path d="M2733 1370 c0 -25 2 -35 4 -22 2 12 2 32 0 45 -2 12 -4 2 -4 -23z"/>
<path d="M1292 1221 c-11 -7 -11 -9 1 -14 16 -6 27 0 27 15 0 10 -11 10 -28
-1z"/>
<path d="M1198 1203 c-44 -51 -78 -169 -78 -274 0 -58 5 -75 37 -134 21 -37
47 -71 58 -77 11 -6 29 -18 40 -28 27 -23 109 -52 148 -53 47 0 141 49 187 99
22 24 52 70 66 101 25 54 26 64 21 159 -7 109 -20 160 -38 148 -7 -4 -7 -9 -1
-13 11 -7 22 -72 11 -65 -4 2 -9 1 -11 -4 -1 -4 -18 -18 -35 -31 l-33 -22 0
56 c0 31 -4 54 -9 51 -5 -3 -34 3 -65 14 -31 10 -90 22 -130 26 l-74 7 -29
-33 c-33 -37 -48 -34 -58 10 -9 43 2 68 33 73 l27 4 -26 2 c-14 0 -33 -7 -41
-16z m2 -322 c0 -6 -5 -13 -10 -16 -6 -4 -8 -11 -5 -16 4 -5 2 -9 -4 -9 -6 0
-7 -7 -4 -17 4 -11 3 -14 -5 -9 -16 10 -15 32 3 49 11 12 12 17 2 20 -7 3 -5
6 6 6 9 1 17 -3 17 -8z m372 -121 c4 0 8 -5 8 -11 0 -5 -4 -7 -10 -4 -5 3 -10
-1 -10 -9 0 -9 -3 -16 -7 -16 -5 0 -9 19 -10 43 -1 37 0 39 9 20 6 -13 15 -23
20 -23z m-87 -40 c6 -10 -1 -14 -48 -24 -26 -6 -27 -5 -15 14 13 21 52 27 63
10z"/>
<path d="M2743 1174 c-7 -7 -13 -17 -13 -21 0 -5 -11 -25 -25 -44 -13 -20 -21
-39 -18 -43 3 -3 -2 -8 -11 -12 -9 -3 -16 -14 -16 -23 1 -12 5 -11 20 8 11 13
20 29 20 37 0 8 5 13 12 12 6 -2 16 13 22 32 5 19 14 38 19 41 5 4 8 11 6 17
-2 6 -9 5 -16 -4z"/>
<path d="M1560 1160 c0 -5 7 -10 16 -10 8 0 12 5 9 10 -3 6 -10 10 -16 10 -5
0 -9 -4 -9 -10z"/>
<path d="M2062 1050 c0 -14 2 -19 5 -12 2 6 2 18 0 25 -3 6 -5 1 -5 -13z"/>
<path d="M2701 1046 c-11 -28 -34 -39 -50 -23 -8 8 -11 7 -11 -3 0 -7 -19 -32
-42 -54 -23 -23 -41 -45 -40 -49 1 -5 -1 -6 -6 -3 -5 3 -44 -9 -87 -25 -66
-26 -88 -30 -144 -26 -36 2 -76 7 -88 10 -14 4 -23 1 -24 -6 0 -7 -24 -46 -53
-87 -58 -83 -128 -133 -203 -145 -37 -6 -43 -4 -58 19 -22 33 -31 135 -16 167
11 23 11 23 -3 5 -9 -11 -16 -16 -16 -12 0 19 -35 -22 -52 -60 -13 -30 -16
-54 -12 -85 9 -63 14 -61 13 3 -1 51 20 120 42 134 5 3 9 -20 9 -50 0 -66 12
-102 48 -139 27 -29 122 -63 147 -53 8 3 17 0 21 -7 4 -7 4 -9 -1 -5 -4 4 -22
-4 -40 -18 -39 -29 -92 -46 -118 -38 -10 3 -16 8 -13 11 3 3 -16 19 -42 37
l-47 31 -65 -23 c-36 -13 -92 -28 -124 -33 -33 -6 -63 -12 -68 -15 -4 -3 -54
-7 -111 -10 -105 -5 -133 -8 -166 -19 -11 -3 -24 1 -32 12 -13 16 -12 17 3 5
12 -10 22 -11 35 -3 17 10 17 10 0 11 -10 0 -61 20 -113 45 -106 51 -124 54
-124 23 -1 -21 -2 -21 -11 -5 -16 27 -85 97 -95 97 -6 0 -26 15 -46 33 -28 26
-41 31 -54 24 -12 -7 -13 -11 -5 -17 8 -5 4 -12 -14 -24 -22 -14 -24 -20 -14
-37 16 -32 13 -113 -7 -151 -10 -18 -17 -36 -16 -40 1 -5 -4 -8 -12 -8 -18 0
-41 -27 -26 -32 6 -2 4 -12 -6 -27 -12 -17 -24 -22 -45 -19 -15 3 -26 1 -23
-4 3 -4 14 -8 24 -8 18 0 18 -3 -6 -37 -32 -48 -37 -70 -32 -148 4 -73 13 -89
34 -61 15 21 20 106 6 106 -4 0 -6 -16 -4 -35 2 -19 1 -43 -3 -52 -7 -17 -8
-16 -15 2 -5 11 -9 45 -9 75 -1 51 3 61 48 125 92 130 96 132 199 89 54 -24
62 -30 62 -54 0 -30 -40 -73 -83 -89 -40 -15 -47 -14 -39 8 13 36 51 71 68 64
12 -4 15 -3 10 5 -4 7 -13 12 -21 12 -21 0 -75 -59 -75 -81 0 -11 -4 -17 -10
-14 -5 3 -10 1 -10 -4 0 -6 4 -11 8 -11 4 0 13 -39 21 -87 16 -114 16 -114 29
-143 15 -35 14 -15 -3 81 -8 46 -17 97 -20 113 l-5 30 23 -22 c13 -12 30 -22
38 -22 28 0 115 102 124 146 2 7 12 21 24 33 12 12 21 30 21 42 0 21 0 21 -20
-2 -10 -13 -19 -19 -20 -12 0 6 5 15 11 18 6 4 8 13 6 19 -4 9 2 11 18 8 20
-3 25 1 30 24 4 16 8 35 11 42 4 14 46 16 59 3 6 -5 21 -11 35 -14 21 -4 20
-4 -7 -6 -17 0 -35 4 -38 9 -12 19 -45 11 -45 -10 0 -11 5 -20 10 -20 6 0 10
-5 10 -11 0 -6 -7 -8 -16 -5 -12 5 -15 2 -10 -9 3 -9 2 -13 -4 -10 -6 3 -10 0
-10 -7 0 -7 -11 -35 -25 -63 -13 -27 -25 -60 -25 -73 0 -19 4 -22 21 -17 13 5
19 3 15 -3 -6 -10 23 -26 32 -17 3 3 0 5 -7 5 -7 0 -9 4 -6 10 3 5 1 10 -4 10
-17 0 -12 83 5 105 16 20 16 20 9 -2 -6 -21 -3 -23 38 -23 25 0 47 -4 49 -8 5
-15 276 -23 290 -9 26 24 68 47 88 47 12 0 20 7 20 18 1 12 5 9 16 -10 8 -16
19 -28 25 -28 6 0 7 -5 3 -12 -5 -7 -12 -5 -22 8 -10 13 -16 15 -19 7 -3 -7
-10 -13 -17 -13 -8 0 -13 -10 -12 -23 1 -12 7 -22 16 -22 21 0 34 -25 20 -38
-8 -9 -10 -7 -5 8 6 19 6 19 -5 1 -10 -14 -10 -20 0 -26 10 -6 11 -18 2 -52
-6 -23 -10 -63 -9 -88 2 -39 5 -45 22 -42 11 2 17 1 13 -3 -9 -9 24 -42 38
-38 8 3 6 17 -7 43 -20 41 -25 96 -10 119 7 11 27 7 107 -24 55 -21 100 -39
102 -40 1 -1 -4 -17 -12 -36 -18 -46 -31 -121 -15 -96 6 10 12 29 15 42 2 14
9 36 14 50 6 15 10 32 10 38 0 12 -91 52 -177 78 -24 6 -43 17 -43 24 0 18 24
65 33 65 5 0 26 18 47 40 43 44 60 50 60 20 0 -11 3 -20 8 -20 4 0 5 -27 4
-61 -3 -48 -1 -60 10 -57 22 7 57 88 64 149 4 33 8 59 11 59 5 0 120 -87 190
-142 28 -23 60 -45 71 -49 18 -7 20 -4 16 18 -3 14 -9 34 -14 44 -15 27 -11
111 5 133 13 17 22 18 82 12 37 -4 95 -8 128 -10 90 -4 87 -3 75 -28 -7 -13
-28 -38 -48 -56 -21 -19 -30 -31 -22 -27 8 5 24 16 35 26 11 10 25 18 30 19
21 2 65 44 65 61 0 10 6 24 13 31 25 26 98 190 118 265 11 43 19 110 19 154 0
74 2 79 35 119 19 23 35 46 35 51 0 17 -10 9 -19 -15z m-324 -313 c9 -21 17
-60 17 -86 1 -26 6 -51 12 -55 16 -10 24 -72 9 -72 -19 0 -73 62 -93 107 -10
24 -22 40 -25 36 -13 -13 -6 23 13 65 24 52 46 54 67 5z m-1412 -223 c12 -25
25 -60 29 -79 5 -29 4 -33 -12 -28 -18 6 -145 51 -150 53 -2 1 8 18 22 39 14
20 31 53 38 72 l13 35 18 -24 c11 -12 29 -43 42 -68z m141 51 c18 -14 21 -20
10 -24 -8 -3 -17 -20 -21 -38 l-7 -32 -15 31 c-14 29 -12 82 3 82 3 0 17 -9
30 -19z m971 -43 c-3 -8 -6 -5 -6 6 -1 11 2 17 5 13 3 -3 4 -12 1 -19z m-1069
-13 c-3 -3 -9 2 -12 12 -6 14 -5 15 5 6 7 -7 10 -15 7 -18z m164 -15 c10 0 18
-4 18 -10 0 -5 -8 -10 -18 -10 -20 0 -42 18 -42 34 0 6 5 5 12 -2 7 -7 20 -12
30 -12z m-344 -12 c-8 -12 -20 -24 -27 -26 -9 -3 -7 5 4 22 10 14 22 26 27 26
6 0 4 -10 -4 -22z m862 12 c0 -5 -8 -10 -17 -10 -15 0 -16 2 -3 10 19 12 20
12 20 0z m-460 -10 c0 -5 -4 -10 -9 -10 -6 0 -13 5 -16 10 -3 6 1 10 9 10 9 0
16 -4 16 -10z m400 -10 c-20 -13 -33 -13 -25 0 3 6 14 10 23 10 15 0 15 -2 2
-10z m53 -16 c-3 -9 -9 -12 -12 -7 -3 4 -10 11 -15 16 -5 4 0 7 12 7 15 0 20
-4 15 -16z m-22 -29 c5 4 6 -2 2 -11 -4 -11 -8 -13 -11 -6 -2 7 -8 10 -13 6
-11 -6 -12 19 -1 30 4 4 8 1 10 -8 2 -9 8 -14 13 -11z m-31 -100 c0 -5 -5 -3
-10 5 -5 8 -10 20 -10 25 0 6 5 3 10 -5 5 -8 10 -19 10 -25z m497 0 c0 -8 -4
-12 -9 -9 -5 3 -6 10 -3 15 9 13 12 11 12 -6z m-515 -227 c-8 -8 -9 -4 -5 13
4 13 8 18 11 10 2 -7 -1 -18 -6 -23z"/>
<path d="M1086 535 c-9 -26 -7 -32 5 -12 6 10 9 21 6 23 -2 3 -7 -2 -11 -11z"/>
<path d="M2111 1004 c0 -11 3 -14 6 -6 3 7 2 16 -1 19 -3 4 -6 -2 -5 -13z"/>
<path d="M0 858 c0 -87 1 -89 21 -83 15 5 19 4 15 -4 -4 -6 -14 -11 -22 -11
-8 0 -14 -4 -14 -10 0 -19 16 -10 59 34 l44 44 44 -51 c45 -53 110 -103 147
-113 12 -3 32 -19 45 -36 l24 -30 -20 -26 c-11 -14 -39 -37 -64 -50 -59 -31
-70 -43 -80 -89 -27 -123 -33 -143 -43 -143 -27 0 -64 -55 -72 -104 -5 -36 -4
-47 5 -42 6 4 8 12 5 18 -4 7 -2 8 4 4 33 -20 -8 -104 -58 -120 -22 -7 -36
-18 -38 -31 -3 -19 -3 -19 12 1 8 12 28 24 43 27 34 7 63 59 63 112 0 45 16
45 37 -1 17 -35 17 -36 -10 -84 -15 -26 -27 -54 -27 -61 1 -8 10 4 20 25 11
22 26 46 33 55 21 24 130 207 171 286 20 39 44 79 52 90 15 20 16 20 40 -10
24 -30 31 -55 16 -55 -5 0 -35 -39 -67 -86 -41 -61 -70 -120 -97 -197 -21 -61
-38 -112 -38 -114 0 -2 8 -3 18 -3 20 0 33 23 63 109 10 29 28 68 39 85 11 18
17 36 13 39 -3 4 -2 7 4 7 6 0 17 15 24 33 7 17 25 51 40 75 l27 42 10 -27 c6
-16 16 -45 22 -66 11 -36 13 -37 46 -31 30 6 34 4 28 -12 -11 -31 11 -5 45 53
36 62 33 71 -4 13 -22 -34 -30 -40 -60 -40 -24 0 -35 5 -35 14 0 22 -76 166
-102 193 -12 13 -22 32 -23 42 -1 10 -16 41 -33 69 -27 44 -29 52 -14 53 9 0
-10 10 -44 23 -96 35 -170 103 -180 164 -8 46 -15 62 -27 62 -7 0 -33 11 -59
24 l-48 23 0 -89z m378 -313 c15 -32 16 -82 2 -90 -6 -4 -23 -29 -38 -56 l-29
-49 -28 30 c-16 17 -35 30 -42 30 -16 0 -33 39 -25 58 2 7 25 23 51 36 25 13
55 33 65 45 25 27 30 26 44 -4z m-107 -173 c40 -36 37 -51 -34 -160 l-53 -82
-17 36 c-10 20 -27 38 -37 41 -30 8 -24 28 15 61 26 21 37 40 42 68 6 35 25
63 45 64 4 0 22 -13 39 -28z"/>
<path d="M2163 893 c9 -2 23 -2 30 0 6 3 -1 5 -18 5 -16 0 -22 -2 -12 -5z"/>
<path d="M972 848 c-6 -6 -42 -22 -79 -35 -51 -17 -58 -22 -28 -17 41 6 109
37 120 54 8 14 2 13 -13 -2z"/>
<path d="M919 773 l-24 -28 28 24 c15 14 27 26 27 28 0 8 -8 1 -31 -24z"/>
<path d="M2791 725 c0 -5 6 -21 13 -35 11 -18 11 -30 3 -45 -9 -17 -8 -18 5
-8 13 11 22 -3 63 -95 55 -122 87 -220 78 -236 -4 -6 -27 -37 -51 -69 -43 -57
-115 -180 -127 -217 -6 -19 -1 -20 94 -20 99 0 101 0 101 23 0 13 9 43 21 66
11 24 18 49 15 57 -3 8 -1 14 4 14 6 0 10 17 10 39 0 22 6 44 15 51 13 10 15
9 15 -8 0 -11 -5 -33 -10 -47 -6 -15 -21 -65 -34 -111 l-24 -84 54 0 54 0 -1
258 c0 147 -4 248 -9 237 -4 -11 -20 -58 -34 -105 -15 -47 -33 -96 -40 -109
-12 -22 -15 -18 -46 80 -18 56 -54 148 -81 203 -27 56 -47 107 -44 114 3 7 1
10 -5 7 -5 -3 -16 7 -24 22 -8 15 -15 24 -15 18z"/>
<path d="M698 660 c-59 -21 -104 -40 -101 -44 4 -3 -17 -6 -46 -6 -44 0 -52
-3 -47 -15 35 -92 43 -184 21 -237 -8 -21 154 139 177 173 24 37 49 101 37 93
-6 -3 -9 2 -7 12 2 11 23 28 48 41 65 31 40 26 -82 -17z m-131 -247 c-9 -21
-13 -23 -15 -9 -5 24 6 49 18 41 6 -3 5 -16 -3 -32z"/>
<path d="M2759 582 c-98 -100 -130 -121 -79 -50 16 22 30 46 30 52 0 6 -12 -8
-26 -32 -28 -47 -155 -153 -233 -195 -26 -15 -63 -28 -82 -30 -18 -3 -50 -12
-69 -21 -41 -20 -19 -17 73 8 32 9 59 16 61 16 11 0 13 -65 5 -130 -27 -209
-26 -200 -8 -200 25 0 100 86 144 164 38 69 65 145 91 260 10 48 22 69 61 110
50 52 78 86 72 86 -2 0 -20 -17 -40 -38z m-112 -107 c0 -8 -4 -12 -9 -9 -5 3
-6 10 -3 15 9 13 12 11 12 -6z m-46 -221 c-31 -79 -70 -142 -122 -197 l-49
-52 6 40 c4 23 20 55 38 76 17 19 56 69 86 111 30 41 56 74 58 73 1 -1 -6 -24
-17 -51z"/>
<path d="M0 516 c0 -3 21 -14 46 -25 25 -11 64 -35 87 -53 40 -30 41 -30 17
-4 -35 39 -150 102 -150 82z"/>
<path d="M1520 348 c0 -19 2 -20 10 -8 13 19 13 30 0 30 -5 0 -10 -10 -10 -22z"/>
<path d="M1027 300 c-3 -11 -1 -23 4 -26 5 -3 9 6 9 20 0 31 -6 34 -13 6z"/>
<path d="M1560 300 c0 -5 5 -10 10 -10 6 0 10 5 10 10 0 6 -4 10 -10 10 -5 0
-10 -4 -10 -10z"/>
<path d="M1530 285 c0 -2 12 -11 27 -18 l27 -15 -33 -7 c-21 -4 -29 -11 -24
-16 6 -6 21 -3 40 8 l31 17 -23 18 c-22 17 -45 24 -45 13z"/>
<path d="M1055 260 c3 -5 11 -10 16 -10 6 0 7 5 4 10 -3 6 -11 10 -16 10 -6 0
-7 -4 -4 -10z"/>
<path d="M518 233 c-44 -52 -101 -160 -104 -197 l-4 -41 10 37 c5 21 22 57 37
80 42 68 83 138 79 138 -1 0 -10 -8 -18 -17z"/>
<path d="M1095 240 c3 -5 11 -10 16 -10 6 0 7 5 4 10 -3 6 -11 10 -16 10 -6 0
-7 -4 -4 -10z"/>
<path d="M515 143 c-33 -38 -49 -59 -36 -48 26 22 105 115 99 115 -3 0 -31
-30 -63 -67z"/>
<path d="M1300 199 c0 -5 5 -7 10 -4 6 3 10 8 10 11 0 2 -4 4 -10 4 -5 0 -10
-5 -10 -11z"/>
<path d="M1353 198 c-20 -27 -21 -34 -3 -34 10 0 17 3 14 7 -2 4 6 5 18 1 14
-3 19 -2 14 6 -4 7 -15 12 -24 13 -14 0 -13 2 3 9 15 7 16 9 4 9 -9 1 -21 -5
-26 -11z"/>
<path d="M1410 200 c-13 -9 -13 -10 0 -10 8 0 22 5 30 10 13 9 13 10 0 10 -8
0 -22 -5 -30 -10z"/>
<path d="M1468 194 c-38 -20 -36 -28 2 -9 17 9 30 18 30 20 0 7 -1 6 -32 -11z"/>
<path d="M1180 165 c0 -8 4 -15 8 -15 5 0 9 7 9 15 0 8 -4 15 -9 15 -4 0 -8
-7 -8 -15z"/>
<path d="M1720 164 c8 -10 19 -22 24 -25 11 -9 -2 -29 -18 -29 -14 0 -30 -32
-42 -82 -6 -26 -4 -28 27 -27 24 1 27 3 12 6 -14 3 -23 11 -22 21 2 29 14 63
21 60 3 -2 15 9 27 23 l20 26 -32 23 c-26 19 -29 20 -17 4z"/>
<path d="M1867 19 c4 -13 8 -18 11 -10 2 7 -1 18 -6 23 -8 8 -9 4 -5 -13z"/>
</g>
</svg>
